<svg id="Laag_1" data-name="Laag 1" xmlns="http://www.w3.org/2000/svg" viewBox="0 0 343.85 300.02"><defs><style>.cls-1{fill:#fe0000;}</style></defs><title>heart</title><path class="cls-1" d="M405.82,218.9a128.19,128.19,0,0,1,9.86-17.47c10.74-15.71,24.43-27.74,42.67-34a77.57,77.57,0,0,1,45.88-1.58c29.34,7.74,51.08,25.24,64.81,52.27,9.75,19.18,11.56,39.55,7.39,60.51-2.62,13.14-8,25.15-15.18,36.4-9.92,15.59-22.5,28.87-36,41.37-14.31,13.3-29.55,25.51-44.63,37.9s-30.29,25-44.27,38.91a238.06,238.06,0,0,0-25.56,29.46l-.38.47c-2.68-3.54-5.37-7-8.18-10.31-12-14.31-25.65-27-40-38.89-13.63-11.31-27.84-21.86-41.88-32.65-14.35-11-28.54-22.27-41.42-35-12.13-12-22.74-25.23-30.56-40.52a123.5,123.5,0,0,1-13.62-51.42c-1-23.08,7.12-42.9,23.2-59.18,21.6-21.86,47.91-31.88,78.67-28.47,21.64,2.4,39.26,12.84,53.57,29.05a112.39,112.39,0,0,1,14.87,21.86C405.29,217.93,405.49,218.31,405.82,218.9Z" transform="translate(-234.68 -163.12)"/></svg>