<svg id="Laag_1" data-name="Laag 1" xmlns="http://www.w3.org/2000/svg" viewBox="0 0 283.46 283.46"><defs><style>.cls-1{fill:#02e272;}</style></defs><title>Tekengebied 6</title><g id="Laag_2" data-name="Laag 2"><g id="Laag_1-2" data-name="Laag 1-2"><path class="cls-1" d="M141,280.71C59.4,280.88.48,222.1.16,137.52-.13,64,64.49,0,139.58.56c82,.65,143,59.69,142.88,140.3C282.37,222.29,211.87,287,141,280.71ZM156.59,227c28.13-.33,50.94-19.22,57.34-47,1.89-8.16,2.06-13.58-7.41-16.92-9.09-3.21-16.3-.47-21.39,6.86-2.38,3.43-1.8,7.81-3.93,11.55-6.29,11.09-16.09,18.43-28.95,17.66-11.53-.69-22.77-4-25.48-16.39-4.34-19.69-7.23-40.68,0-58.5,5.35-13.25,25.65-4.82,39-7.49a12.68,12.68,0,0,1,2.22-.14c9.4-.18,16.15-3.46,15.71-14.25-.36-9.21-6.47-14.29-14.67-13.15-18.54,2.59-23.12-5.78-21.3-22.37,1.14-10.29-5.51-14.62-15.29-14.64s-15,6.36-15.58,16.69c-.8,13.92,6.33,32.8-3.21,40.42-8.8,7-26.89,2.56-40.89,3.13-8.13.33-14.44.87-14.59,11.45C58,134.1,65,139.73,72,138.62c26.23-4.22,22.14,13.07,22.26,28.56.27,39.19,24.38,60.24,62.32,59.79Z"/></g></g></svg>