<svg id="Laag_1" data-name="Laag 1" xmlns="http://www.w3.org/2000/svg" viewBox="0 0 283.46 283.46"><defs><style>.cls-1{fill:#00d66c;}.cls-2{fill:#fff;stroke:#00d66c;stroke-miterlimit:10;}</style></defs><title>Tekengebied 3</title><g id="Laag_2" data-name="Laag 2"><g id="Laag_1-2" data-name="Laag 1-2"><path class="cls-1" d="M263.32,261.54H19.49A17.63,17.63,0,0,1,1.84,243.93V93.65A17.63,17.63,0,0,1,19.45,76H263.32A17.63,17.63,0,0,1,281,93.61V243.88A17.67,17.67,0,0,1,263.32,261.54Z"/><path class="cls-2" d="M136.89,257.92c-28.57-33.32-56.81-66.24-85-98.84C50,157,48.23,154.39,46,152.18c-23.16-27.12-22.82-26.76,4.35-50.65,8-6.9,12-7.22,18.47.74,16.26,20,33.33,39.49,50,59.35,13,15.93,13,16.25,24.21-.32C173.83,115,204.94,68.61,235,21.57c5.82-9,9.44-9,17.39-3.61,31.13,20.61,31.13,20.3,10.85,51.06-39.79,60.42-80,120.93-119.86,181.36C141.9,252.09,139.76,254.32,136.89,257.92Z"/></g></g></svg>