<svg id="Laag_1" data-name="Laag 1" xmlns="http://www.w3.org/2000/svg" viewBox="0 0 283.46 283.46"><defs><style>.cls-1{fill:#01e273;}</style></defs><title>Tekengebied 4</title><g id="Laag_2" data-name="Laag 2"><g id="Laag_1-2" data-name="Laag 1-2"><path class="cls-1" d="M282.74,142.51c3.2,72.78-62.66,142.54-145.74,139.88C67.24,280.08-.4,218.48,1,138.25,2.26,69,63.51-1.49,145.52.28,219.54,1.74,286.81,66.18,282.74,142.51Zm-89.65-35.86c-1.77-20.24-8.87-36.39-27.69-46.51-18.1-9.94-33.9-6.92-51.12,3-33,19-23.61,75.09-2.13,98.87,20.41,22.37,41.89,21.66,61.6-1.24C187.24,145,190.08,125.82,193.09,106.65ZM51.61,216.71c49.35,58,137.76,57.51,181.43-1.07-22.73-1.95-43-24.49-66,3s-24.85,25.39-50.77,0c-6.75-6.74-11.89-17.75-24.5-14.38S66.35,212.09,51.61,216.71Z"/></g></g></svg>