<?xml version="1.0" encoding="utf-8"?>
<!-- Generator: Adobe Illustrator 22.1.0, SVG Export Plug-In . SVG Version: 6.00 Build 0)  -->
<svg version="1.1" id="Laag_1" xmlns="http://www.w3.org/2000/svg" xmlns:xlink="http://www.w3.org/1999/xlink" x="0px" y="0px"
	 viewBox="0 0 283.5 283.5" style="enable-background:new 0 0 283.5 283.5;" xml:space="preserve">
<style type="text/css">
	.st0{fill:#02E272;}
	.st1{fill:#01E273;}
	.st2{fill:#00D66C;}
	.st3{fill:#FFFFFF;stroke:#00D66C;stroke-miterlimit:10;}
</style>
<title>Middel 3</title>
<g id="Laag_2_1_">
	<g id="Laag_1-2">
		<path class="st0" d="M-481.6,280.7c-81.6,0.2-140.5-58.6-140.9-143.2C-622.7,64-558.1,0-483,0.6c82,0.6,143,59.7,142.9,140.3
			C-340.2,222.3-410.7,287-481.6,280.7z M-466,227c28.1-0.3,50.9-19.2,57.3-47c1.9-8.2,2.1-13.6-7.4-16.9
			c-9.1-3.2-16.3-0.5-21.4,6.9c-2.4,3.4-1.8,7.8-3.9,11.6c-6.3,11.1-16.1,18.4-28.9,17.7c-11.5-0.7-22.8-4-25.5-16.4
			c-4.3-19.7-7.2-40.7,0-58.5c5.4-13.3,25.7-4.8,39-7.5c0.7-0.1,1.5-0.2,2.2-0.1c9.4-0.2,16.1-3.5,15.7-14.2
			c-0.4-9.2-6.5-14.3-14.7-13.2c-18.5,2.6-23.1-5.8-21.3-22.4c1.1-10.3-5.5-14.6-15.3-14.6c-9.8,0-15,6.4-15.6,16.7
			c-0.8,13.9,6.3,32.8-3.2,40.4c-8.8,7-26.9,2.6-40.9,3.1c-8.1,0.3-14.4,0.9-14.6,11.5c-0.1,10.2,6.9,15.8,13.8,14.7
			c26.2-4.2,22.1,13.1,22.3,28.6C-528,206.4-503.9,227.4-466,227L-466,227z"/>
	</g>
</g>
<g id="Laag_2_2_">
	<g id="Laag_1-2_1_">
		<path class="st1" d="M282.7,142.5c3.2,72.8-62.7,142.5-145.7,139.9C67.2,280.1-0.4,218.5,1,138.2C2.3,69,63.5-1.5,145.5,0.3
			C219.5,1.7,286.8,66.2,282.7,142.5z M193.1,106.6c-1.8-20.2-8.9-36.4-27.7-46.5c-18.1-9.9-33.9-6.9-51.1,3
			c-33,19-23.6,75.1-2.1,98.9c20.4,22.4,41.9,21.7,61.6-1.2C187.2,145,190.1,125.8,193.1,106.6z M51.6,216.7
			c49.3,58,137.8,57.5,181.4-1.1c-22.7-2-43-24.5-66,3s-24.9,25.4-50.8,0c-6.7-6.7-11.9-17.8-24.5-14.4S66.3,212.1,51.6,216.7z"/>
	</g>
</g>
<g id="Laag_2_3_">
	<g id="Laag_1-2_2_">
		<path class="st2" d="M-36.2,261.5H-280c-9.7,0-17.6-7.9-17.6-17.6c0,0,0,0,0-0.1V93.6c0-9.7,7.9-17.6,17.6-17.6c0,0,0,0,0,0h243.8
			c9.7,0,17.6,7.9,17.6,17.6c0,0,0,0,0,0v150.2C-18.5,253.6-26.4,261.5-36.2,261.5z"/>
		<path class="st3" d="M-162.6,257.9c-28.6-33.3-56.8-66.2-85-98.8c-1.8-2.1-3.6-4.7-5.8-6.9c-23.2-27.1-22.8-26.8,4.3-50.6
			c8-6.9,12-7.2,18.5,0.7c16.3,19.9,33.3,39.5,50,59.3c13,15.9,13,16.3,24.2-0.3c30.8-46.3,61.9-92.7,92-139.7c5.8-9,9.4-9,17.4-3.6
			C-16,38.6-16,38.3-36.3,69c-39.8,60.4-80,120.9-119.9,181.4C-157.6,252.1-159.7,254.3-162.6,257.9z"/>
	</g>
</g>
</svg>
