<?xml version="1.0" encoding="utf-8"?>
<!-- Generator: Adobe Illustrator 22.1.0, SVG Export Plug-In . SVG Version: 6.00 Build 0)  -->
<svg version="1.1" id="Laag_1" xmlns="http://www.w3.org/2000/svg" xmlns:xlink="http://www.w3.org/1999/xlink" x="0px" y="0px"
	 viewBox="0 0 841.9 595.3" style="enable-background:new 0 0 841.9 595.3;" xml:space="preserve">
<style type="text/css">
	.st0{fill:#00D66C;}
	.st1{fill:#FFFFFF;stroke:#00D66C;stroke-miterlimit:10;}
</style>
<path class="st0" d="M516.6,399h-297c-11.9,0-21.5-9.6-21.5-21.5v-183c0-11.9,9.6-21.5,21.5-21.5h297c11.9,0,21.5,9.6,21.5,21.5v183
	C538.1,389.4,528.4,399,516.6,399z"/>
<g>
	<path class="st1" d="M362.6,394.6C327.8,354,293.4,313.9,259,274.2c-2.2-2.6-4.4-5.7-7.1-8.4c-28.2-33.1-27.8-32.6,5.3-61.7
		c9.7-8.4,14.6-8.8,22.5,0.9c19.8,24.3,40.6,48.1,60.9,72.3c15.9,19.4,15.9,19.8,29.5-0.4c37.5-56.4,75.4-112.9,112-170.2
		c7.1-11,11.5-11,21.2-4.4c37.9,25.1,37.9,24.7,13.2,62.2c-48.5,73.6-97.4,147.3-146,220.9C368.7,387.5,366.1,390.2,362.6,394.6z"/>
</g>
</svg>
