<?xml version="1.0" encoding="utf-8"?>
<!-- Generator: Adobe Illustrator 22.1.0, SVG Export Plug-In . SVG Version: 6.00 Build 0)  -->
<svg version="1.1" id="Laag_1" xmlns="http://www.w3.org/2000/svg" xmlns:xlink="http://www.w3.org/1999/xlink" x="0px" y="0px"
	 viewBox="0 0 841.9 595.3" style="enable-background:new 0 0 841.9 595.3;" xml:space="preserve">
<style type="text/css">
	.st0{fill:#01E273;}
	.st1{fill:#FAFEFC;}
	.st2{fill:#F9FEFC;}
</style>
<g>
	<path class="st0" d="M472.4,212c1.8,41-35.3,80.3-82.1,78.8c-39.3-1.3-77.4-36-76.6-81.2c0.7-39,35.2-78.7,81.4-77.7
		C436.8,132.7,474.7,169,472.4,212z M421.9,191.8c-1-11.4-5-20.5-15.6-26.2c-10.2-5.6-19.1-3.9-28.8,1.7
		c-18.6,10.7-13.3,42.3-1.2,55.7c11.5,12.6,23.6,12.2,34.7-0.7C418.6,213.4,420.2,202.6,421.9,191.8z M342.2,253.8
		c27.8,32.7,77.6,32.4,102.2-0.6c-12.8-1.1-24.2-13.8-37.2,1.7c-12.9,15.4-14,14.3-28.6,0c-3.8-3.8-6.7-10-13.8-8.1
		C357.6,248.8,350.5,251.2,342.2,253.8z"/>
	<path class="st1" d="M421.9,191.8c-1.7,10.8-3.3,21.6-10.9,30.5c-11.1,13-23.2,13.3-34.7,0.7c-12.2-13.4-17.4-44.9,1.2-55.7
		c9.7-5.6,18.6-7.3,28.8-1.7C416.9,171.4,421,180.5,421.9,191.8z"/>
	<path class="st2" d="M342.2,253.8c8.2-2.6,15.3-4.9,22.6-6.9c7.1-2,10,4.3,13.8,8.1c14.6,14.3,15.7,15.3,28.6,0
		c13-15.5,24.4-2.8,37.2-1.7C419.8,286.1,370,286.5,342.2,253.8z"/>
</g>
</svg>
