<svg xmlns="http://www.w3.org/2000/svg" viewBox="0 0 1123.58 200.18"><defs><style>.cls-1{fill:#02e272;}.cls-2{fill:#08e378;}.cls-3{fill:#08e377;}.cls-4{fill:#03e376;}.cls-5{fill:#05e376;}.cls-6{fill:#03e377;}.cls-7{fill:#03e378;}.cls-8{fill:#02e47a;}.cls-9{fill:#03e47d;}.cls-10{fill:#06e276;}.cls-11{fill:#f4fdfa;}.cls-12{fill:#fafefd;}.cls-13{fill:#fcfefd;}</style></defs><title>Middel 3</title><g id="Laag_2" data-name="Laag 2"><g id="Laag_1-2" data-name="Laag 1"><path class="cls-1" d="M100.14,199.88C42.12,200,.23,156.79,0,96.66-.2,44.39,45.74-.42,99.12,0,157.41.46,200.77,43.15,200.7,100.46,200.63,158.35,150.51,204.35,100.14,199.88Zm11.07-38.2c20-.24,36.22-13.67,40.77-33.4,1.34-5.8,1.46-10.37-5.27-12.75-6.46-2.28-11.59-.33-15.21,4.88-1.69,2.44-1.28,6.27-2.79,8.93-4.47,7.88-11.44,13.1-20.58,12.55-8.2-.49-16.19-4.3-18.12-13.07-3.08-14-5.14-29.64,0-42.31,3.81-9.42,18.24-2,27.72-3.9a9.19,9.19,0,0,1,1.58-.1c6.68-.13,11.48-2.46,11.17-10.13-.26-6.55-4.6-10.16-10.43-9.35-13.18,1.84-16.44-4.11-15.14-15.9.81-7.32-3.92-10.4-10.87-10.41s-10.66,3.1-11.08,10.44c-.57,9.9,4.5,23.32-2.28,28.74-6.26,5-19.12,1.82-29.07,2.22-5.78.24-10.27,1.34-10.37,8.86-.1,7.25,4.87,10.54,9.84,9.75,18.65-3,15.74,9.29,15.83,20.3C67.1,144.89,84.24,162,111.21,161.68Z"/><path class="cls-2" d="M1123.49,107.25c0,11.64.13,23.29-.07,34.93-.07,4.48,1.66,10.72-4.7,11.9-6,1.11-13.71,2.7-17.3-4.05-3-5.6-3.67-6.06-9.27-2.16-17.55,12.21-44.36,8.75-59.39-6.47s-18.48-44.7-7.25-63.09c10.76-17.64,37.58-27.73,56.76-20.1,8.94,3.56,15.64,7,25.49.32,8.88-6.06,16-1.6,15.73,10.61-.28,12.69-.06,25.4-.06,38.11ZM1071.21,133c18.37-.16,28-9.89,28.07-28.39.07-15.89-12.76-28.74-29-29-15.31-.28-28.75,13.94-28.17,29.81C1042.77,123.57,1052.9,133.18,1071.21,133Z"/><path class="cls-3" d="M849.77,105.81c0,11.66.08,23.32,0,35-.05,5.08,1.59,11.51-5.61,13.05-6.09,1.3-13.49,2.84-16.88-4.42-2.66-5.67-3.92-4.66-8.62-1.92-21.49,12.53-47.07,8.73-62.06-8.39-14.45-16.5-15.41-47.21-2-64.64,13.92-18.12,41.09-23.73,62.66-12.81,4.07,2.06,7.13,5.67,11-1.23s11.75-4.72,17.4-3.31c6.85,1.72,3.93,8.87,4.08,13.72C850,82.48,849.77,94.15,849.77,105.81Zm-24.52-2.34c-.07-17.85-10.69-28.13-28.81-27.9-15.78.21-28.52,13.48-28.47,29.65a30.46,30.46,0,0,0,31.57,30.5C814,135.34,825.32,121.08,825.25,103.47Z"/><path class="cls-4" d="M516.1,105.72c0,11.12.26,22.26-.13,33.37-.16,4.33,2.81,10.74-3.1,12.54s-15.19,3.31-17.87-1.52c-4.7-8.46-7.64-3.58-12-1.26-18.79,10-47.74,5.5-59.59-9-14-17.19-15.68-48.94-3.41-65.27,12.82-17.06,39.94-23.91,60-14.63,6.23,2.88,9.95,5.82,17.72-.07,10.73-8.16,18.26-2.67,18.38,10.89C516.18,82.4,516.1,94.06,516.1,105.72Zm-80.05-1.12c-.17,17.85,9.34,28.62,25.63,29,17.82.45,28.81-9.95,29.09-27.54.28-17.2-12.13-30.33-28.83-30.51C446.12,75.41,436.23,86.5,436.05,104.6Z"/><path class="cls-5" d="M537.79,104.26c0-11.66-.26-23.33.13-35,.15-4.26-2.7-10.43,3.62-12.27,5.59-1.62,13.42-2.07,16.29,3,4.8,8.43,8,4,13.1,1.18,21.53-11.67,50.35-3.4,57.34,17.86,7.35,22.36,5,46.09,4.36,69.3-.24,8.84-8.48,5.61-13.77,6.23-6.63.77-9.82-2.19-9.85-9,0-14.84.22-29.7-.59-44.51C607.36,81.75,593.24,72.6,575.47,79c-11.61,4.15-13.3,14.46-14,24.41a330.29,330.29,0,0,0-.11,38.15c.42,8.68-1.86,12.08-11.33,12.05-9.74,0-13.14-2.86-12.46-12.74C538.42,128.69,537.79,116.45,537.79,104.26Z"/><path class="cls-4" d="M693.17,55.75c9.74-.49,19,1,27.3,6.46,4.15,2.72,8.35,5.6,4.66,11.33-3,4.7-5.24,10.72-13.34,6.55s-16.94-5.34-26.1-4.67c-5.29.39-9.65,2-10.54,7.58-.94,5.88,3.3,8.51,8.26,9.72,7.6,1.86,15.35,3.13,22.91,5.13,14.34,3.78,27.53,8.83,27.19,27.4-.29,15.95-7.87,23.55-28.24,28-17.72,3.87-34.58,1.67-50.18-7.62-4.6-2.74-10.68-5.81-4.91-13.28,4.37-5.66,6.94-10.66,15.93-4.67,9.88,6.58,21.58,11.18,34.28,6.55,4-1.47,8.59-3.21,8.55-8.13-.05-5.4-4.2-8.15-9.24-9-8.8-1.59-17.9-2.11-26.41-4.63-13.43-4-23.72-11.32-23.34-27.63.43-18.09,13.57-23.44,27.46-27.69C682.34,55.61,687.9,56.15,693.17,55.75Z"/><path class="cls-6" d="M914.57,126.5c9.23-22.77,17.74-41.37,24.27-60.64,4.73-14,14.79-8.94,23.42-8.55,3.83.17,3.49,4.52,2.14,7.67-11.7,27.52-23,55.23-35.41,82.42-4.15,9.1-14.35,3.71-21.68,5.32-7.16,1.57-8.51-4.17-10.55-9-10-23.72-20.18-47.35-29.88-71.18-1.91-4.67-8.42-11.79-.17-14.68,7.67-2.67,18.07-5.17,22.84,6.78C897.28,84,905.18,103.31,914.57,126.5Z"/><path class="cls-7" d="M321.87,67.76c1.5,8.72-2.79,12.16-10.73,10.78-13.4-2.33-16.23,4.25-15,15.84.73,6.8.35,13.76.08,20.63-.43,11.38,3.47,19.41,16.17,17.35,11.49-1.87,10,7.64,11.95,12.76,2.75,7.1-4.53,6.43-8.69,7.69-22.57,6.84-39.82-4.46-42.17-27.8q-1.61-15.8-2.45-31.64c-.39-7.61,2.34-16.52-11.07-15.15-5.93.61-5.19-5.41-5.42-9.48-.28-4.9-.18-11.23,5.69-11.33,10.76-.19,10.6-6.15,11.08-14.17.58-9.76,7.75-12.78,16.91-12.39,10.42.43,8.46,8.49,7.76,13.95-1.38,10.72,3.48,12.72,12.5,11.75C316.62,55.68,324,56.4,321.87,67.76Z"/><path class="cls-8" d="M337.87,104.8c0-11.68-.3-23.37.14-35,.17-4.66-3.08-11.59,5-13,5.77-1,14.4-1.33,15.93,4,3.08,10.7,6.28,4.19,9.78,1.44,9.16-7.18,19.79-7.55,30.08-4.83,4.8,1.27,14.81,1.89,10.81,11.38-2.45,5.84-2.6,15.05-15.71,10.89-20.5-6.51-30.54,3-30.67,25-.08,13.28-.45,26.57.12,39.82.4,9.26-4.47,10.47-11.84,10.18-7-.29-14.17.93-13.73-10C338.27,131.37,337.87,118.08,337.87,104.8Z"/><path class="cls-9" d="M978.25,104.49c0-12.16.41-24.34-.14-36.48-.4-8.86,4.15-11.54,11.55-10.51,6.1.85,14.27-1,14.07,10.17q-.69,38.06,0,76.13c.16,9-4.6,10.85-11.77,10.61-6.84-.22-14.16.39-13.82-10.28C978.58,130.93,978.25,117.7,978.25,104.49Z"/><path class="cls-10" d="M992.31,21.31c6.08,1,12.12,4.89,11.41,13.94-.61,7.82-5.66,12.43-13.85,12s-12.48-5.44-12.44-13.49S981.38,20.78,992.31,21.31Z"/><path class="cls-11" d="M111.21,161.68C84.24,162,67.1,144.89,66.88,117c-.09-11,2.82-23.27-15.83-20.3-5,.79-9.94-2.5-9.84-9.75.1-7.52,4.59-8.62,10.37-8.86,10-.4,22.81,2.8,29.07-2.22,6.78-5.42,1.71-18.84,2.28-28.74C83.35,39.82,87,36.71,94,36.72s11.68,3.09,10.87,10.41c-1.3,11.79,2,17.74,15.14,15.9,5.83-.81,10.17,2.8,10.43,9.35.31,7.67-4.49,10-11.17,10.13a9.19,9.19,0,0,0-1.58.1c-9.48,1.92-23.91-5.52-27.72,3.9-5.11,12.67-3,28.28,0,42.31,1.93,8.77,9.92,12.58,18.12,13.07,9.14.55,16.11-4.67,20.58-12.55,1.51-2.66,1.1-6.49,2.79-8.93,3.62-5.21,8.75-7.16,15.21-4.88,6.73,2.38,6.61,7,5.27,12.75C147.43,148,131.21,161.44,111.21,161.68Z"/><path class="cls-12" d="M1071.21,133c-18.31.16-28.44-9.45-29.1-27.61-.58-15.87,12.86-30.09,28.17-29.81,16.24.29,29.07,13.14,29,29C1099.2,123.13,1089.58,132.86,1071.21,133Z"/><path class="cls-12" d="M825.25,103.47c.07,17.61-11.3,31.87-25.71,32.25A30.46,30.46,0,0,1,768,105.22c-.05-16.17,12.69-29.44,28.47-29.65C814.56,75.34,825.18,85.62,825.25,103.47Z"/><path class="cls-13" d="M436.05,104.6c.18-18.1,10.07-29.19,25.89-29,16.7.18,29.11,13.31,28.83,30.51-.28,17.59-11.27,28-29.09,27.54C445.39,133.22,435.88,122.45,436.05,104.6Z"/></g></g></svg>