<svg xmlns="http://www.w3.org/2000/svg" viewBox="0 0 165 146.68"><defs><style>.cls-1{fill:#00d66c;}.cls-2{fill:#fff;stroke:#00d66c;stroke-miterlimit:10;}</style></defs><title>Middel 4</title><g id="Laag_2" data-name="Laag 2"><g id="Laag_1-2" data-name="Laag 1"><path class="cls-1" d="M154.57,146.68H10.43A10.42,10.42,0,0,1,0,136.24V47.43A10.42,10.42,0,0,1,10.43,37H154.57A10.42,10.42,0,0,1,165,47.43v88.81A10.45,10.45,0,0,1,154.57,146.68Z"/><path class="cls-2" d="M79.83,144.54c-16.89-19.7-33.58-39.16-50.27-58.43-1.07-1.26-2.14-2.77-3.45-4.08C12.42,66,12.62,66.21,28.68,52.09c4.71-4.08,7.09-4.27,10.92.44,9.61,11.79,19.7,23.34,29.56,35.08,7.71,9.42,7.71,9.61,14.31-.19,18.2-27.37,36.59-54.79,54.36-82.6,3.44-5.34,5.58-5.34,10.28-2.13,18.4,12.18,18.4,12,6.41,30.18C131,68.59,107.25,104.36,83.67,140.08,82.79,141.09,81.53,142.41,79.83,144.54Z"/></g></g></svg>