<svg xmlns="http://www.w3.org/2000/svg" viewBox="0 0 158.81 158.96"><defs><style>.cls-1{fill:#01e273;}.cls-2{fill:#fafefc;}.cls-3{fill:#f9fefc;}</style></defs><title>Middel 1</title><g id="Laag_2" data-name="Laag 2"><g id="Laag_1-2" data-name="Laag 1"><path class="cls-1" d="M158.71,80.12c1.8,41-35.3,80.3-82.1,78.8-39.3-1.3-77.4-36-76.6-81.2C.71,38.72,35.21-1,81.41,0,123.11.82,161,37.12,158.71,80.12Zm-50.5-20.2c-1-11.4-5-20.5-15.6-26.2-10.2-5.6-19.1-3.9-28.8,1.7-18.6,10.7-13.3,42.3-1.2,55.7,11.5,12.6,23.6,12.2,34.7-.7C104.91,81.52,106.51,70.72,108.21,59.92Zm-79.7,62c27.8,32.7,77.6,32.4,102.2-.6-12.8-1.1-24.2-13.8-37.2,1.7s-14,14.3-28.6,0c-3.8-3.8-6.7-10-13.8-8.1S36.81,119.32,28.51,121.92Z"/><path class="cls-2" d="M108.21,59.92c-1.7,10.8-3.3,21.6-10.9,30.5-11.1,13-23.2,13.3-34.7.7-12.2-13.4-17.4-44.9,1.2-55.7,9.7-5.6,18.6-7.3,28.8-1.7C103.21,39.52,107.31,48.62,108.21,59.92Z"/><path class="cls-3" d="M28.51,121.92c8.2-2.6,15.3-4.9,22.6-6.9,7.1-2,10,4.3,13.8,8.1,14.6,14.3,15.7,15.3,28.6,0,13-15.5,24.4-2.8,37.2-1.7C106.11,154.22,56.31,154.62,28.51,121.92Z"/></g></g></svg>