<?xml version="1.0" encoding="utf-8"?>
<!-- Generator: Adobe Illustrator 22.1.0, SVG Export Plug-In . SVG Version: 6.00 Build 0)  -->
<svg version="1.1" id="Laag_1" xmlns="http://www.w3.org/2000/svg" xmlns:xlink="http://www.w3.org/1999/xlink" x="0px" y="0px"
	 viewBox="0 0 841.9 595.3" style="enable-background:new 0 0 841.9 595.3;" xml:space="preserve">
<style type="text/css">
	.st0{fill:#FFFFFF;}
	.st1{fill:#5DB568;}
	.st2{fill:#3F2F88;}
	.st3{fill:#E7255F;}
	.st4{fill:#F2DAC7;}
	.st5{fill:#FAFDFC;}
	.st6{fill:#F8F6FB;}
	.st7{fill:#F2EDF7;}
	.st8{fill:#FCFBFE;}
	.st9{fill:#FFFCFD;}
	.st10{fill:#FEF7FA;}
	.st11{fill:#FDFEFE;}
	.st12{fill:#48328A;}
	.st13{fill:#5FB66E;}
	.st14{fill:#EFD7C6;}
</style>
<g>
	<path class="st0" d="M836.6,193.9c-0.3-0.3-0.6-0.6-0.9-0.9C836.5,192.8,836.8,193.1,836.6,193.9z"/>
	<path class="st0" d="M-18.1,193c-0.3,0.3-0.6,0.6-0.9,0.9C-19.2,193.1-18.9,192.8-18.1,193z"/>
	<path class="st1" d="M99.9,255.2c-0.1,25-20.2,44.6-45.6,44.5c-24.7-0.1-44.4-20.3-44.3-45.3c0.2-25,20.2-44.6,45.6-44.5
		C80.3,210,100,230.1,99.9,255.2z M50.2,264c0,1.7,0.2,3.4,0,5.1c-0.4,3,0.7,4,3.8,4c3.4,0,3.8-1.5,3.7-4.3c-0.2-3.4,0-6.8-0.1-10.3
		c0-2.2-0.1-4,3-3.8c3,0.2,1.8-2.7,2.4-4.2c0.5-1.2-0.1-2-1.6-2.1c-1.7-0.1-3.9,0.7-3.9-2.5c0-2.8,1.5-3.4,3.9-3.3
		c2.2,0,1.7-1.7,1.8-3c0-1.2,0.1-2.3-1.7-2.7c-6.5-1.5-10.9,1.5-11.3,8c-0.1,1.9,0.2,3.5-2.5,4.1c-2,0.4-1.8,5.4,0.2,5.7
		c2.7,0.5,2.2,2.1,2.2,3.7C50.2,260.3,50.2,262.1,50.2,264z"/>
	<path class="st2" d="M827.3,254.8c0,24.6-20.2,44.9-44.7,44.9c-24.7,0-45.1-20.1-45.1-44.5c0-25.2,19.9-45.3,44.7-45.4
		C807.1,209.8,827.2,229.9,827.3,254.8z M785.8,239c-0.2-0.3-0.4-0.6-0.6-1c-3.7,0-7.4-0.4-11,0.1c-3.9,0.5-7.2,2.6-7.7,6.9
		c-0.5,4.1,1.7,6.8,5.7,7.9c1.3,0.4,1.8,0.8,1.9,2.1c0.1,1.7-1.1,1.4-2.1,1.7c-3.9,1-7.9,2.7-7.4,7.5c0.5,4.8,4.8,5.4,8.8,5.8
		c0.8,0.1,1.6,0.1,2.3,0.1c4-0.2,7.4-1.5,8.9-5.5c1.5-3.8-0.4-6.6-3.4-8.8c-2.1-1.5-2.4-3-0.2-4.8c1.9-1.6,3.1-3.6,2.4-6.2
		C782.7,242.3,782.6,240.1,785.8,239z M800.4,252.8c0.1-1.9-1.2-2-2.5-1.8c-2.6,0.4-3.7-0.7-3.3-3.3c0.2-1.3,0.1-2.6-1.8-2.5
		c-1.8,0.1-1.9,1.3-1.8,2.6c0.2,2.3-0.4,3.6-3,3.2c-1.1-0.1-2.7-0.5-2.8,1.5c-0.1,1.7,1.2,2.2,2.5,2c2.7-0.3,3.6,0.8,3.3,3.4
		c-0.1,1.3,0.3,2.5,2,2.4c2-0.1,1.6-1.7,1.5-2.8c-0.3-2.5,0.8-3.3,3.2-3.1C799,254.7,800.3,254.6,800.4,252.8z"/>
	<path class="st2" d="M245,255.2c0,24.5-20.4,44.6-45.1,44.5c-24.6,0-44.9-20.3-44.8-44.8c0.1-25,20.1-45.1,45.1-45
		C225.1,209.9,245,230.1,245,255.2z M184,271.2c15.4,5.9,32-4,32.8-19.6c0.2-4,0.2-7.9,3-11.4c-2.6-1-4.7,1.3-7.3-0.9
		c-5.5-4.9-13.3-1.9-14.1,5.6c-0.5,4.3-2.4,3.8-5.2,3.1c-4.5-1.2-9-2.5-13.7-3.8c0.3,4.1,2,7.2,3.5,10.3c-1.3,0.3-2.2,0.5-3.3,0.8
		c1.7,3.2,3.5,5.7,5.9,7.7c4.8,3.9,4.8,3.9-0.6,7.4C184.8,270.6,184.4,270.9,184,271.2z"/>
	<path class="st3" d="M345.8,299.7c-24.4-0.1-44.6-20.3-44.6-44.7c0-25.2,20-45.3,45-45.2c25,0.1,44.9,20.2,44.9,45.4
		C391,279.7,370.6,299.8,345.8,299.7z M345.8,272.9c4,0,8.1,0.1,12.1,0c3.9-0.1,6-2.1,6-6.1c0-3.3,0-6.5,0-9.8
		c0-1.7,0.2-3.8-2.4-3.4c-2.1,0.3-5-1.7-5.9,2.5c-1.2,5.6-5.2,8.9-9.8,8.9c-4.6,0-8.7-3.5-9.8-8.9c-0.4-2-1.2-2.3-3-2.5
		c-4.1-0.4-6.1,0.7-5.5,5.3c0.4,2.8-0.1,5.6,0.2,8.4c0.3,3.6,2.2,5.7,6,5.8C337.7,272.9,341.8,272.9,345.8,272.9z M345.8,236.7
		C345.8,236.7,345.8,236.7,345.8,236.7c-4.3,0.1-8.7,0-13,0.1c-3.2,0.1-4.9,2.3-5,5.1c-0.2,2.8-1.7,6.6,1.1,8.1
		c2.3,1.2,6.1,1.6,8.7-0.8c6.6-6,9.9-6.1,16.6,0c1.6,1.4,9.1,1.9,9.5,0.5c0.9-3.1,0.9-6.5-0.1-9.6c-0.7-2.5-3-3.4-5.6-3.4
		C353.9,236.7,349.9,236.7,345.8,236.7z M340.4,255c0.3,3.2,2.2,5.3,5.4,5.3c3.5,0,5.7-2.1,5.6-5.6c-0.1-3.4-2.3-5.6-5.8-5.4
		C342.3,249.5,340.5,251.6,340.4,255z"/>
	<path class="st1" d="M591.4,254.8c0.1-25.5,20-45.1,45.6-44.9c24.9,0.1,44.3,20.3,44.2,45.9c-0.1,24.6-20.4,44.1-45.6,44
		C611.1,299.6,591.3,279.4,591.4,254.8z M636.5,271.9c4.7-0.3,9.7-0.8,14.7-0.9c3.7-0.1,5.3-2.2,5.9-5.4c1.2-6.7,1.2-13.3,0-20
		c-0.6-3.6-2.7-5.6-6.3-5.6c-9.4-0.1-18.7-0.1-28.1,0c-3.4,0-5.4,2-6,5.4c-1.2,6.8-1.3,13.7,0,20.5c0.6,3,2.1,5.1,5.6,5.2
		C626.8,271.1,631.5,271.5,636.5,271.9z"/>
	<path class="st4" d="M536.1,255c0,24.4-20.4,44.8-45,44.8c-24.3,0-44.9-20.4-44.9-44.4c0-25,20.1-45.4,44.8-45.4
		C515.8,209.8,536.1,230.1,536.1,255z M470.5,274.4c11.2-3.3,11.2-3.3,16.2-2c8.8,2.3,18.2-1.7,22.7-9.7c4.5-8,3.1-18-3.4-24.4
		c-6.5-6.4-16-7.7-24-3.2c-8.1,4.5-12.4,13.8-9.5,22.6c1.5,4.5,1.1,8.3-0.7,12.4C471.3,271.2,471.1,272.5,470.5,274.4z"/>
	<path class="st5" d="M50.2,264c0-1.9,0-3.7,0-5.6c0-1.6,0.5-3.2-2.2-3.7c-2-0.3-2.2-5.3-0.2-5.7c2.7-0.6,2.4-2.2,2.5-4.1
		c0.4-6.5,4.8-9.5,11.3-8c1.8,0.4,1.7,1.5,1.7,2.7c0,1.3,0.4,3.1-1.8,3c-2.4,0-3.8,0.6-3.9,3.3c0,3.2,2.2,2.4,3.9,2.5
		c1.4,0.1,2.1,0.9,1.6,2.1c-0.6,1.5,0.6,4.4-2.4,4.2c-3.2-0.2-3.1,1.7-3,3.8c0.1,3.4-0.1,6.9,0.1,10.3c0.1,2.7-0.3,4.3-3.7,4.3
		c-3.1,0-4.2-1-3.8-4C50.4,267.4,50.2,265.7,50.2,264z"/>
	<path class="st6" d="M785.8,239c-3.2,1.2-3.1,3.3-2.5,5.8c0.7,2.5-0.5,4.6-2.4,6.2c-2.1,1.8-1.8,3.3,0.2,4.8c3,2.2,4.9,4.9,3.4,8.8
		c-1.6,4-4.9,5.3-8.9,5.5c-0.8,0-1.6,0-2.3-0.1c-4-0.4-8.3-1.1-8.8-5.8c-0.5-4.8,3.4-6.4,7.4-7.5c1-0.3,2.2,0,2.1-1.7
		c-0.1-1.3-0.6-1.7-1.9-2.1c-3.9-1.1-6.2-3.7-5.7-7.9c0.5-4.3,3.8-6.4,7.7-6.9c3.6-0.5,7.3-0.1,11-0.1
		C785.4,238.3,785.6,238.6,785.8,239z M775.2,267.1c2.9,0,5.8-0.7,5.7-4c-0.1-3.1-2.8-4.7-5.9-4.5c-2.7,0.2-5.6,1-5.6,4.2
		C769.2,266.6,772.3,266.9,775.2,267.1z M778.6,245.8c-0.3-2.2-1.4-4.7-4.4-4.9c-2.5-0.2-3.2,2.1-3,4.3c0.2,2.8,1.5,5.4,4.5,5.6
		C778.2,251,778.7,248.6,778.6,245.8z"/>
	<path class="st7" d="M800.4,252.8c-0.1,1.8-1.4,1.9-2.7,1.7c-2.4-0.3-3.5,0.5-3.2,3.1c0.1,1.1,0.5,2.7-1.5,2.8
		c-1.7,0.1-2.2-1.1-2-2.4c0.3-2.6-0.7-3.7-3.3-3.4c-1.3,0.1-2.5-0.3-2.5-2c0.1-2,1.7-1.6,2.8-1.5c2.6,0.3,3.3-1,3-3.2
		c-0.1-1.3,0-2.5,1.8-2.6c1.9-0.1,2,1.2,1.8,2.5c-0.4,2.7,0.7,3.7,3.3,3.3C799.2,250.8,800.5,250.9,800.4,252.8z"/>
	<path class="st8" d="M184,271.2c0.4-0.3,0.8-0.6,1.1-0.8c5.4-3.5,5.4-3.5,0.6-7.4c-2.4-2-4.2-4.5-5.9-7.7c1-0.2,1.9-0.5,3.3-0.8
		c-1.6-3.2-3.3-6.2-3.5-10.3c4.7,1.3,9.2,2.6,13.7,3.8c2.7,0.7,4.7,1.1,5.2-3.1c0.9-7.4,8.6-10.5,14.1-5.6c2.5,2.3,4.7,0,7.3,0.9
		c-2.8,3.4-2.8,7.3-3,11.4C216,267.2,199.4,277.1,184,271.2z"/>
	<path class="st9" d="M345.8,272.9c-4,0-8.1,0-12.1,0c-3.8,0-5.7-2.2-6-5.8c-0.2-2.8,0.2-5.6-0.2-8.4c-0.6-4.5,1.4-5.7,5.5-5.3
		c1.8,0.2,2.6,0.5,3,2.5c1.1,5.5,5.2,8.9,9.8,8.9c4.6,0,8.6-3.3,9.8-8.9c0.9-4.1,3.8-2.1,5.9-2.5c2.7-0.4,2.4,1.6,2.4,3.4
		c0,3.3,0,6.5,0,9.8c0,4-2.1,6.1-6,6.1C353.9,273,349.9,272.9,345.8,272.9z"/>
	<path class="st9" d="M345.8,236.7c4,0,8.1,0,12.1,0c2.6,0,4.8,0.9,5.6,3.4c1,3.1,0.9,6.5,0.1,9.6c-0.4,1.5-7.9,0.9-9.5-0.5
		c-6.7-6-9.9-6-16.6,0c-2.7,2.4-6.4,2-8.7,0.8c-2.8-1.4-1.2-5.3-1.1-8.1c0.2-2.9,1.9-5,5-5.1C337.1,236.7,341.5,236.8,345.8,236.7
		C345.8,236.7,345.8,236.7,345.8,236.7z M360,243.6c0.4-2.3-0.7-3-2.9-2.9c-1.9,0-2.9,0.4-2.8,2.6c0.1,1.9,0.2,3.3,2.7,3.1
		C359,246.3,360.4,246.1,360,243.6z"/>
	<path class="st10" d="M340.4,255c0.2-3.4,2-5.5,5.2-5.6c3.5-0.2,5.7,1.9,5.8,5.4c0.1,3.4-2.1,5.6-5.6,5.6
		C342.5,260.2,340.7,258.2,340.4,255z"/>
	<path class="st11" d="M636.5,271.9c-5-0.3-9.6-0.8-14.3-1c-3.4-0.2-5-2.2-5.6-5.2c-1.3-6.8-1.3-13.6,0-20.5c0.6-3.3,2.6-5.3,6-5.4
		c9.4-0.1,18.7-0.1,28.1,0c3.6,0,5.7,2.1,6.3,5.6c1.2,6.7,1.2,13.3,0,20c-0.6,3.2-2.2,5.3-5.9,5.4
		C646.1,271.1,641.2,271.5,636.5,271.9z M630,248.5c0,5,0,9.3,0,14c5.2-2.3,9.9-4.5,15.4-7C639.8,252.9,635.1,250.8,630,248.5z"/>
	<path class="st12" d="M470.5,274.4c0.5-1.9,0.7-3.2,1.3-4.4c1.8-4.1,2.2-7.8,0.7-12.4c-2.9-8.8,1.5-18,9.5-22.6
		c8.1-4.5,17.5-3.2,24,3.2c6.5,6.4,7.9,16.5,3.4,24.4c-4.5,8-13.9,12-22.7,9.7C481.8,271.1,481.8,271.1,470.5,274.4z M477.4,267.6
		c3.5-1.2,6.4-1.2,9.7,0.1c7.1,2.7,14.5-0.3,18.5-6.8c3.8-6.2,3-14-2.1-19.4c-4.8-5.1-13-6.3-19.3-2.9c-6.4,3.5-9.9,10.8-7.8,17.9
		C477.5,260.2,479.6,263.5,477.4,267.6z"/>
	<path class="st12" d="M775.2,267.1c-2.9-0.2-6-0.5-5.9-4.2c0.1-3.2,3-4.1,5.6-4.2c3.1-0.2,5.8,1.4,5.9,4.5
		C781,266.4,778.1,267.1,775.2,267.1z"/>
	<path class="st12" d="M778.6,245.8c0.1,2.8-0.5,5.2-2.9,5c-3-0.2-4.2-2.8-4.5-5.6c-0.2-2.2,0.5-4.4,3-4.3
		C777.2,241.1,778.4,243.6,778.6,245.8z"/>
	<path class="st3" d="M360,243.6c0.5,2.5-1,2.7-3,2.8c-2.5,0.1-2.6-1.2-2.7-3.1c-0.1-2.2,0.9-2.5,2.8-2.6
		C359.3,240.7,360.4,241.3,360,243.6z"/>
	<path class="st13" d="M630,248.5c5,2.3,9.8,4.5,15.4,7c-5.5,2.5-10.3,4.7-15.4,7C630,257.8,630,253.5,630,248.5z"/>
	<path class="st14" d="M477.4,267.6c2.2-4.1,0.1-7.4-0.9-11.1c-2.1-7,1.4-14.4,7.8-17.9c6.3-3.4,14.5-2.2,19.3,2.9
		c5.1,5.4,6,13.2,2.1,19.4c-4,6.5-11.4,9.5-18.5,6.8C483.7,266.5,480.9,266.4,477.4,267.6z M497.4,261.4c0.9-0.1,2.6-0.3,3.3-2.3
		c0.4-1,0.4-1.9-0.6-2.4c-1.5-0.7-2.8-2.8-4.8-0.8c-2,2.1-3.5,0.2-4.7-1c-1.4-1.3-3.9-2.4-2.2-5.2c1.3-2.1-0.2-3.8-1.3-5.4
		c-0.4-0.7-1.3-0.7-2.1-0.2c-1.8,1.1-2.5,2.7-2.3,4.7C483.2,254.2,491.2,261.5,497.4,261.4z"/>
	<path class="st12" d="M497.4,261.4c-6.2,0.1-14.3-7.2-14.6-12.6c-0.1-2,0.6-3.6,2.3-4.7c0.8-0.5,1.6-0.4,2.1,0.2
		c1.1,1.6,2.6,3.3,1.3,5.4c-1.8,2.8,0.8,3.9,2.2,5.2c1.2,1.2,2.7,3.1,4.7,1c2-2.1,3.3,0,4.8,0.8c1,0.5,1,1.4,0.6,2.4
		C500,261.1,498.4,261.3,497.4,261.4z"/>
</g>
</svg>
