<?xml version="1.0" encoding="utf-8"?>
<!-- Generator: Adobe Illustrator 22.1.0, SVG Export Plug-In . SVG Version: 6.00 Build 0)  -->
<svg version="1.1" id="Laag_1" xmlns="http://www.w3.org/2000/svg" xmlns:xlink="http://www.w3.org/1999/xlink" x="0px" y="0px"
	 viewBox="0 0 841.9 595.3" style="enable-background:new 0 0 841.9 595.3;" xml:space="preserve">
<style type="text/css">
	.st0{fill:#01E273;}
</style>
<g>
	<path class="st0" d="M348.1,394.6c-34.8-40.6-69.2-80.7-103.6-120.4c-2.2-2.6-4.4-5.7-7.1-8.4c-28.2-33.1-27.8-32.6,5.3-61.7
		c9.7-8.4,14.6-8.8,22.5,0.9c19.8,24.3,40.6,48.1,60.9,72.3c15.9,19.4,15.9,19.8,29.5-0.4c37.5-56.4,75.4-112.9,112-170.2
		c7.1-11,11.5-11,21.2-4.4c37.9,25.1,37.9,24.7,13.2,62.2c-48.5,73.6-97.4,147.3-146,220.9C354.2,387.5,351.6,390.2,348.1,394.6z"/>
</g>
</svg>
